<svg xmlns="http://www.w3.org/2000/svg" width="256" height="256"><path fill-opacity=".016" d="M0 128.004v128.004l128.25-.254 128.25-.254.254-127.75L257.008 0H0v128.004m.485.496c0 70.4.119 99.053.265 63.672.146-35.38.146-92.98 0-128C.604 29.153.485 58.1.485 128.5" fill="#1976D2" fill-rule="evenodd"/><path fill-opacity=".139" d="M27.286 1.441C17.014 4.675 7.869 12.781 3.16 22.825L.5 28.5v199l3.186 6.725c3.821 8.066 10.226 14.603 18.096 18.467L27.5 255.5h201l5.62-2.635c10.356-4.856 16.723-12.284 20.875-24.351 1.952-5.674 2.005-8.357 2.005-102.171 0-55.519-.377-96.343-.889-96.343-.488 0-1.178-1.546-1.533-3.436-.841-4.485-7.646-14.616-12.1-18.013-1.929-1.471-6.088-3.885-9.243-5.363L227.5.5l-98-.193C50.438.151 30.686.37 27.286 1.441M.481 128c0 53.625.121 75.563.269 48.75.148-26.813.148-70.688 0-97.5C.602 52.437.481 74.375.481 128m120.974-82.545c-2.016 2.015-2.455 3.445-2.455 8 0 3.05-.254 5.545-.565 5.545-.31 0-1.672-1.317-3.027-2.926-3.159-3.755-7.301-4.698-11.378-2.59-3.546 1.834-5.379 5.652-4.542 9.462.314 1.43 4.833 7.392 10.042 13.25L119 86.847v12.077c0 6.642-.338 12.066-.75 12.054-.412-.012-5.7-2.903-11.75-6.425l-11-6.403L91 84.895c-3.519-10.366-5.095-13.691-7.231-15.256-6.413-4.699-15.076 2.318-12.773 10.346.533 1.86.807 3.546.607 3.745-.2.2-2.204-.597-4.455-1.77-3.587-1.87-4.541-1.985-7.717-.937-7.752 2.558-7.743 12.953.014 16.652 3.546 1.691 4.674 3.32 2.305 3.331-.687.003-2.937.474-4.998 1.046-9.67 2.686-8.218 16.972 1.721 16.938 1.665-.006 8.877-1.108 16.027-2.449l13-2.437 10.75 6.118c5.912 3.366 10.742 6.38 10.731 6.699-.01.318-5.747 3.886-12.75 7.928L83.5 142.198l-11.088-3.099c-13.418-3.75-15.772-3.83-18.957-.644-4.782 4.781-2.606 12.35 4.196 14.595l3.644 1.202-3.74 3.14c-3.017 2.534-3.76 3.857-3.845 6.849-.196 6.931 7.076 11.085 13.441 7.678 2.835-1.517 3.108-.784 1.313 3.513-1.271 3.043-1.347 4.394-.404 7.251 1.921 5.819 9.379 7.762 14.059 3.662.89-.779 4.461-8.122 7.935-16.317l6.317-14.899 10.595-6.065c5.827-3.335 10.919-6.064 11.315-6.064.395 0 .719 6.559.719 14.576v14.577l-9.47 10.651c-5.209 5.858-9.728 11.82-10.042 13.25-.871 3.966 1.077 7.771 4.918 9.602 2.935 1.4 3.915 1.454 6.556.36 1.708-.708 3.943-2.351 4.966-3.651 1.023-1.301 2.133-2.365 2.466-2.365.333 0 .606 2.495.606 5.545 0 4.555.439 5.985 2.455 8 3.093 3.094 8.252 3.26 11.91.382 2.317-1.822 2.635-2.787 2.635-8 0-6.107 1.094-7.488 3.045-3.842 1.454 2.715 7.288 5.121 10.479 4.32 5.097-1.28 7.936-7.808 5.432-12.488-.575-1.073-5.075-6.507-10-12.076L136 171.715v-14.357c0-7.953.406-14.358.909-14.358.501 0 5.525 2.655 11.166 5.9l10.256 5.9 6.358 15.35c3.497 8.442 7.297 16.137 8.445 17.1 1.148.963 3.633 1.75 5.522 1.75 7.099 0 10.578-7.78 6.77-15.143-.865-1.673-1.358-3.259-1.094-3.522.263-.264 2.284.66 4.49 2.053 5.387 3.4 8.622 4.085 12.236 2.588 3.624-1.501 4.942-3.697 4.942-8.236 0-3.635-1.973-6.005-7.75-9.311-3.911-2.238-4.056-3.01-.725-3.846 3.976-.998 6.475-4.143 6.475-8.149 0-4.685-1.281-6.893-4.857-8.375-2.53-1.048-4.456-.792-14.021 1.863-6.099 1.693-11.629 3.078-12.289 3.078-1.354 0-26.764-14.225-26.794-15-.01-.275 4.718-3.238 10.507-6.585l10.527-6.085 14.639 2.81c8.051 1.546 15.692 2.546 16.979 2.223 3.314-.832 6.309-5.061 6.309-8.909 0-3.746-4.618-8.443-8.327-8.469-5.295-.038-5.058-1.751.69-4.994 3.119-1.761 6.338-4.154 7.154-5.318 2.307-3.294 1.866-8.381-.972-11.218-3.331-3.332-7.582-3.153-14.132.595l-5.331 3.05.562-4.8c.462-3.953.177-5.285-1.614-7.55-1.762-2.228-2.982-2.75-6.428-2.75-5.99 0-7.752 2.365-12.104 16.247-2.91 9.284-4.239 12.133-6.34 13.585-3.859 2.667-20.601 12.168-21.443 12.168-.393 0-.715-5.357-.715-11.905V87.19l8.292-9.345c4.56-5.14 9.06-10.458 10-11.818 5.199-7.525-3.044-16.792-11.189-12.58-1.674.866-3.523 2.469-4.109 3.563-1.901 3.553-2.994 2.116-2.994-3.937 0-5.213-.318-6.178-2.635-8-3.658-2.878-8.817-2.712-11.91.382" fill="#1976D2" fill-rule="evenodd"/><path fill-opacity=".38" d="M29.5 1.409C14.916 5.023 4.25 16.07 1.124 30.799c-1.485 6.999-1.586 186.479-.109 194.315 2.247 11.923 10.496 22.423 21.767 27.706l5.718 2.68h199l6.5-3.095c11.186-5.325 18.02-13.975 21.426-27.121 1.377-5.313 1.574-17.715 1.574-99.119 0-60.953-.345-93.26-1-93.665-.55-.34-1-1.645-1-2.899 0-4.178-5.947-14.368-11.077-18.98-5.941-5.342-11.618-8.236-18.844-9.606C216.805-.554 35.952-.19 29.5 1.409M.48 128c0 51.975.121 73.237.27 47.25.148-25.988.148-68.513 0-94.5C.601 54.762.48 76.025.48 128M124.5 42.945c-3.656 1.497-5.778 4.892-6.272 10.037l-.481 5.003-3.408-2.992c-4.492-3.944-8.519-3.967-12.416-.07-2.099 2.1-2.923 3.894-2.923 6.368 0 2.928 1.426 5.065 9.5 14.235l9.5 10.79v11.842c0 6.513-.282 11.842-.627 11.842-.345 0-5.456-2.798-11.358-6.217l-10.73-6.217-3.862-12.533C86.981 70.616 85.094 68 79.134 68c-3.19 0-4.457.596-6.545 3.077-2.75 3.267-3.202 6.181-1.61 10.367l.979 2.575-3.939-2.009C65.852 80.904 62.902 80 61.463 80 57.794 80 53 85.011 53 88.846c0 3.312 3.905 8.672 7.044 9.668 3.009.955 2.319 2.486-1.121 2.486-6.845 0-11.338 9.107-7.322 14.841 2.864 4.089 5.247 4.252 21.241 1.458l14.948-2.611 10.687 6.023 10.688 6.024-3.333 2.005c-1.832 1.103-7.623 4.508-12.868 7.566l-9.537 5.559-12.18-3.495c-11.738-3.369-12.303-3.437-15.575-1.885-3.274 1.554-5.672 4.983-5.672 8.112 0 3.249 3.083 7.304 6.49 8.536 3.977 1.438 4.424 2.442 1.499 3.37-2.416.767-4.989 5.405-4.989 8.993 0 3.095 3.772 7.158 7.519 8.098 1.681.422 3.94.081 6.014-.909l3.323-1.584-1.428 3.417c-2.175 5.206-1.777 8.287 1.495 11.559 3.427 3.426 8.647 3.939 11.936 1.173 1.145-.963 4.946-8.5 8.448-16.75l6.366-15 10.664-6.214L118 143.071V172.518l-9.5 10.903c-10.946 12.564-11.845 15.388-6.577 20.656 3.897 3.897 7.924 3.874 12.416-.07l3.408-2.992.483 5.025c1.434 14.927 18.77 13.916 18.77-1.094v-4.153l3.535 3.103c3.722 3.269 7.134 3.883 10.781 1.941 3.332-1.775 4.617-3.979 4.652-7.978.034-3.843-.862-5.136-13.218-19.088l-5.75-6.493v-29.362l4.75 2.736a646.606 646.606 0 0110.601 6.292l5.851 3.556 6.009 14.5c7.106 17.148 8.507 19 14.374 19 3.504 0 4.685-.533 6.826-3.077 2.977-3.537 3.185-5.561 1.089-10.577-.825-1.975-1.5-3.768-1.5-3.985 0-.217 2.235.738 4.967 2.122 6.001 3.041 9.909 3.189 13.321.505 5.576-4.386 3.939-12.301-3.309-15.999-4.07-2.076-5.222-3.989-2.402-3.989 2.834 0 7.423-5.564 7.423-9 0-3.976-4.711-9-8.44-9-1.426 0-7.483 1.357-13.459 3.016l-10.866 3.016-12.599-7.266c-6.929-3.996-12.607-7.517-12.617-7.824-.011-.308 4.48-3.162 9.98-6.342l9.998-5.784 15.006 2.783c16.92 3.139 19.221 2.894 22.298-2.374 3.397-5.817.164-11.556-7.626-13.539l-4.824-1.227 6.175-3.474c9.15-5.147 11.307-11.527 5.672-16.785-3.796-3.543-6.67-3.598-12.945-.25-3.143 1.678-5.925 3.05-6.182 3.05-.257 0-.006-1.322.557-2.938 2.199-6.307-4.203-13.083-10.958-11.599-4.421.971-5.57 2.87-9.975 16.48l-4.026 12.443-11.585 6.773L137 110.932V86.775l9.5-10.929c8.601-9.894 9.5-11.307 9.5-14.935 0-8.469-8.709-11.739-15.465-5.807L137 58.207v-4.153c0-5.201-2.07-9.309-5.472-10.859-2.988-1.362-4.206-1.405-7.028-.25" fill="#1976D2" fill-rule="evenodd"/><path fill-opacity=".104" d="M26.079 2.633C16.739 5.924 9.045 12.771 4.317 22L1.5 27.5v201l2.67 5.696c5.014 10.697 15.291 18.494 27.304 20.715 7.845 1.45 185.975 1.518 193.64.074 15.257-2.875 26.968-14.6 29.871-29.906 1.444-7.616 1.376-185.76-.074-193.605-2.224-12.028-9.529-21.685-20.465-27.055L228.5 1.5l-99-.212c-87.427-.187-99.517-.03-103.421 1.345M122.75 43.08c-2.636 1.536-4.75 6.338-4.75 10.793v3.973l-2.923-2.923c-5.066-5.066-13.001-3.743-15.655 2.61-2.006 4.801-.824 7.139 9.658 19.112l8.984 10.262-.282 11.532-.282 11.532-10.914-6.235L95.672 97.5l-3.87-12.472c-5.084-16.383-8.476-19.862-16.213-16.63-4.397 1.837-5.94 4.794-5.33 10.208l.486 4.314-2.823-1.46C60.709 77.73 53 81.773 53 89.286c0 3.086.655 4.524 3.106 6.813C57.814 97.694 59.64 99 60.165 99c.524 0 .675.45.335 1s-1.507 1-2.594 1c-5.996 0-10.068 7.283-7.504 13.421 2.452 5.868 4.754 6.198 22.247 3.193l15.148-2.602 10.091 5.744c5.551 3.159 10.083 5.969 10.074 6.244-.03.821-23.844 14-25.297 14-.737 0-5.8-1.345-11.252-2.989-12.54-3.78-14.787-3.791-18.49-.088-4.034 4.034-4.034 9.12 0 13.154 1.608 1.608 3.89 2.923 5.071 2.923 1.916 0 1.762.364-1.423 3.368-2.847 2.686-3.571 4.12-3.571 7.077 0 7.105 7.923 11.807 14.217 8.439 1.84-.985 1.989-.897 1.265.75-.452 1.026-1.014 3.755-1.249 6.065-.592 5.828 2.787 9.301 9.047 9.301 5.927 0 7.125-1.556 14.639-19.008l6.247-14.507 9.497-5.493c5.224-3.02 9.911-5.642 10.417-5.825.532-.193.92 5.646.92 13.853v14.186l-8.606 9.647c-10.479 11.745-12.008 14.741-9.992 19.567 2.674 6.399 10.591 7.741 15.675 2.657l2.923-2.923v3.989c0 10.4 9.392 15.619 16.077 8.934 2.491-2.491 2.923-3.702 2.923-8.19v-5.267l3.119 3.19c5.682 5.812 15.012 3.342 16.456-4.358.797-4.247.156-5.285-11.046-17.89L137 171.963v-13.981c0-7.69.287-13.982.637-13.982.35 0 5.012 2.541 10.36 5.646l9.722 5.646 4.819 11.604c7.427 17.885 8.981 20.662 12.339 22.053 3.958 1.64 8.603.527 11.111-2.661 2.356-2.995 2.568-7.022.616-11.694l-1.397-3.342 5.704 2.941c6.23 3.213 9.279 3.142 12.978-.304 5.031-4.687 3.784-10.908-3.114-15.535l-4.69-3.146 2.909-1.205c6.396-2.65 8.069-10.652 3.201-15.316-3.589-3.439-7.115-3.46-18.665-.112-4.886 1.417-9.592 2.611-10.457 2.653-.865.043-6.073-2.517-11.573-5.689-16.814-9.697-16.22-7.816-4.589-14.535l10.092-5.831 14.749 2.758c16.14 3.017 18.722 2.824 22.254-1.666 4.38-5.568.545-13.444-7.303-14.998l-4.203-.832 5.741-3.286c6.555-3.751 8.759-6.378 8.759-10.437 0-3.956-1.534-6.42-5.168-8.299-3.741-1.935-7.346-1.376-12.624 1.956l-3.85 2.43.071-4.985c.061-4.267-.333-5.332-2.735-7.399-3.479-2.995-8.481-3.157-11.998-.391-1.91 1.503-3.66 5.318-6.785 14.786l-4.212 12.761-10.556 5.965c-5.806 3.28-10.913 6.114-11.349 6.297-.437.184-.794-4.918-.794-11.337v-11.67l8.412-9.314c11.096-12.286 11.966-13.685 11.163-17.964-1.432-7.632-10.799-10.171-16.498-4.471L137 58.154V53c0-4.363-.449-5.602-2.923-8.077-3.086-3.086-7.859-3.863-11.327-1.843" fill="#1976D2" fill-rule="evenodd"/></svg>